<?xml version="1.0" encoding="UTF-8"?>
<svg width="24px" height="24px" viewBox="0 0 24 24" version="1.1" xmlns="http://www.w3.org/2000/svg" xmlns:xlink="http://www.w3.org/1999/xlink">
    <title>Group 6</title>
    <defs>
        <polygon id="path-1" points="0 0 24.000407 0 24.000407 23.8542947 0 23.8542947"></polygon>
    </defs>
    <g id="02_PDP" stroke="none" stroke-width="1" fill="none" fill-rule="evenodd">
        <g id="PDP_Desktop_Copy-link-toast" transform="translate(-335.000000, -753.000000)">
            <g id="Group" transform="translate(135.000000, 747.000000)">
                <g id="Group-6" transform="translate(200.000407, 6.000000)">
                    <g id="Group-3">
                        <mask id="mask-2" fill="white">
                            <use xlink:href="#path-1"></use>
                        </mask>
                        <g id="Clip-2"></g>
                        <path d="M24.000407,11.9997965 C24.000407,5.37251067 18.628032,-0.000542664142 12.0000678,-0.000542664142 C5.372782,-0.000542664142 -0.000271332071,5.37251067 -0.000271332071,11.9997965 C-0.000271332071,17.989452 4.38852491,22.9541505 10.1251632,23.8542947 L10.1251632,15.468777 L7.07810407,15.468777 L7.07810407,11.9997965 L10.1251632,11.9997965 L10.1251632,9.35566547 C10.1251632,6.34862779 11.9166332,4.68739719 14.6577655,4.68739719 C15.9710127,4.68739719 17.343953,4.9214211 17.343953,4.9214211 L17.343953,7.87487069 L15.8305983,7.87487069 C14.3403069,7.87487069 13.8749724,8.80011306 13.8749724,9.74841864 L13.8749724,11.9997965 L17.2035386,11.9997965 L16.6710494,15.468777 L13.8749724,15.468777 L13.8749724,23.8542947 C19.6122891,22.9541505 24.000407,17.989452 24.000407,11.9997965" id="Fill-1" fill="#337FFF" mask="url(#mask-2)"></path>
                    </g>
                    <path d="M16.6713208,15.4686414 L17.2031316,11.9996608 L13.8752438,11.9996608 L13.8752438,9.74896131 C13.8752438,8.79997739 14.3398999,7.87473503 15.8308697,7.87473503 L17.3442243,7.87473503 L17.3442243,4.92128544 C17.3442243,4.92128544 15.9706057,4.68726152 14.6580368,4.68726152 C11.9169046,4.68726152 10.1254346,6.34849213 10.1254346,9.35620813 L10.1254346,11.9996608 L7.0783754,11.9996608 L7.0783754,15.4686414 L10.1254346,15.4686414 L10.1254346,23.854159 C10.7359317,23.9498036 11.3627088,24 12.0003392,24 C12.6379695,24 13.2640683,23.9498036 13.8752438,23.854159 L13.8752438,15.4686414 L16.6713208,15.4686414 Z" id="Fill-4" fill="#FFFFFF"></path>
                </g>
            </g>
        </g>
    </g>
</svg>