<?xml version="1.0" encoding="UTF-8"?>
<svg width="30px" height="31px" viewBox="0 0 30 31" version="1.1" xmlns="http://www.w3.org/2000/svg" xmlns:xlink="http://www.w3.org/1999/xlink">
    <title>65CE81C1-1048-4958-BEA0-BE09D579014F</title>
    <defs>
        <polygon id="path-1" points="0 0 30 0 30 30 0 30"></polygon>
    </defs>
    <g id="Page-1" stroke="none" stroke-width="1" fill="none" fill-rule="evenodd">
        <g id="Homepage---Desktop" transform="translate(-1013.000000, -6986.000000)">
            <g id="Hero_Footer" transform="translate(0.000000, 6501.000000)">
                <g id="Group-17" transform="translate(749.000000, 485.444776)">
                    <g id="Group-11" transform="translate(114.000000, 0.000000)">
                        <g id="Group-6-Copy" transform="translate(150.000000, 0.000000)">
                            <g id="Group-3">
                                <mask id="mask-2" fill="white">
                                    <use xlink:href="#path-1"></use>
                                </mask>
                                <g id="Clip-2"></g>
                                <path d="M30,15.0000848 C30,23.2840048 23.2846451,30.0001696 14.9998304,30.0001696 C6.71586361,30.0001696 -0.000339159337,23.2840048 -0.000339159337,15.0000848 C-0.000339159337,6.71616481 6.71586361,0 14.9998304,0 C23.2846451,0 30,6.71616481 30,15.0000848" id="Fill-1" fill="#FF0000" mask="url(#mask-2)"></path>
                            </g>
                            <path d="M17.6141554,15.3212669 L13.4840426,17.3646903 C13.322094,17.4520234 12.7718079,17.335014 12.7718079,17.1510211 L12.7718079,12.9564918 C12.7718079,12.7699552 13.3263335,12.6529459 13.488282,12.7453663 L17.442032,14.8964722 C17.6082201,14.9905884 17.7820393,15.2305423 17.6141554,15.3212669 L17.6141554,15.3212669 Z M23.03053,12.8572882 C23.03053,10.8681299 21.4178273,9.25543641 19.4286578,9.25543641 L10.2179381,9.25543641 C8.22876863,9.25543641 6.61606598,10.8681299 6.61606598,12.8572882 L6.61606598,17.1433901 C6.61606598,19.1325484 8.22876863,20.7452419 10.2179381,20.7452419 L19.4286578,20.7452419 C21.4178273,20.7452419 23.03053,19.1325484 23.03053,17.1433901 L23.03053,12.8572882 Z" id="Fill-4" fill="#FFFFFF"></path>
                        </g>
                    </g>
                </g>
            </g>
        </g>
    </g>
</svg>