<svg xmlns="http://www.w3.org/2000/svg" width="50" height="50" viewBox="0 0 50 50">
    <defs>
        <radialGradient id="oog80xe5aa" cx="16.133%" cy="98.654%" r="120.672%" fx="16.133%" fy="98.654%">
            <stop offset="0%" stop-color="#FEC053"/>
            <stop offset="32.73%" stop-color="#F2203E"/>
            <stop offset="64.85%" stop-color="#B729A8"/>
            <stop offset="100%" stop-color="#5342D6"/>
        </radialGradient>
    </defs>
    <g fill="none" fill-rule="evenodd">
        <g fill-rule="nonzero">
            <g>
                <g transform="translate(-730.000000, -890.000000) translate(660.000000, 890.000000) translate(70.000000, 0.000000)">
                    <rect width="50" height="50" fill="url(#oog80xe5aa)" rx="25"/>
                    <g fill="#FFF">
                        <path d="M21.443 29.934H8.613c-4.673 0-8.477-3.802-8.477-8.477V8.627C.136 3.952 3.938.148 8.613.148h12.83c4.674 0 8.478 3.802 8.478 8.477v12.83c-.002 4.676-3.804 8.478-8.478 8.478zM8.613 2.706c-3.266 0-5.924 2.656-5.924 5.924v12.83c0 3.266 2.656 5.925 5.924 5.925h12.83c3.266 0 5.925-2.657 5.925-5.925V8.63c0-3.266-2.657-5.924-5.925-5.924H8.613z" transform="translate(10.000000, 10.000000)"/>
                        <path d="M15.028 22.67c-4.205 0-7.626-3.42-7.626-7.627 0-4.205 3.42-7.626 7.626-7.626s7.627 3.42 7.627 7.626c-.002 4.206-3.423 7.627-7.627 7.627zm0-12.7c-2.796 0-5.073 2.275-5.073 5.073 0 2.799 2.275 5.074 5.073 5.074 2.798 0 5.074-2.275 5.074-5.074-.002-2.798-2.277-5.073-5.074-5.073zM24.813 6.981c0 1.013-.82 1.832-1.832 1.832-1.011 0-1.832-.82-1.832-1.832 0-1.013.82-1.832 1.832-1.832 1.011 0 1.832.82 1.832 1.832z" transform="translate(10.000000, 10.000000)"/>
                    </g>
                </g>
            </g>
        </g>
    </g>
</svg>
